<svg width="64" height="64" viewBox="0 0 64 64" fill="none" xmlns="http://www.w3.org/2000/svg">
  <!-- Gradient definition -->
  <defs>
    <linearGradient id="grad1" x1="0%" y1="0%" x2="100%" y2="100%">
      <stop offset="0%" style="stop-color:#667eea;stop-opacity:1" />
      <stop offset="100%" style="stop-color:#764ba2;stop-opacity:1" />
    </linearGradient>
    <linearGradient id="grad2" x1="0%" y1="0%" x2="100%" y2="100%">
      <stop offset="0%" style="stop-color:#f093fb;stop-opacity:1" />
      <stop offset="100%" style="stop-color:#f5576c;stop-opacity:1" />
    </linearGradient>
  </defs>

  <!-- Chat bubble shape -->
  <path d="M48 12H16C10.48 12 6 16.48 6 22v20c0 5.52 4.48 10 10 10h6v8l10-8h16c5.52 0 10-4.48 10-10V22c0-5.52-4.48-10-10-10z"
        fill="url(#grad1)" stroke="#ffffff" stroke-width="2"/>

  <!-- Neural network nodes (brain-like pattern) -->
  <circle cx="22" cy="26" r="2.5" fill="url(#grad2)"/>
  <circle cx="32" cy="24" r="2.5" fill="url(#grad2)"/>
  <circle cx="42" cy="26" r="2.5" fill="url(#grad2)"/>
  <circle cx="26" cy="34" r="2.5" fill="url(#grad2)"/>
  <circle cx="38" cy="34" r="2.5" fill="url(#grad2)"/>
  <circle cx="32" cy="40" r="2.5" fill="url(#grad2)"/>

  <!-- Connecting lines (neural network) -->
  <line x1="22" y1="26" x2="32" y2="24" stroke="#ffffff" stroke-width="1.5" opacity="0.7"/>
  <line x1="32" y1="24" x2="42" y2="26" stroke="#ffffff" stroke-width="1.5" opacity="0.7"/>
  <line x1="22" y1="26" x2="26" y2="34" stroke="#ffffff" stroke-width="1.5" opacity="0.7"/>
  <line x1="42" y1="26" x2="38" y2="34" stroke="#ffffff" stroke-width="1.5" opacity="0.7"/>
  <line x1="32" y1="24" x2="26" y2="34" stroke="#ffffff" stroke-width="1.5" opacity="0.7"/>
  <line x1="32" y1="24" x2="38" y2="34" stroke="#ffffff" stroke-width="1.5" opacity="0.7"/>
  <line x1="26" y1="34" x2="32" y2="40" stroke="#ffffff" stroke-width="1.5" opacity="0.7"/>
  <line x1="38" y1="34" x2="32" y2="40" stroke="#ffffff" stroke-width="1.5" opacity="0.7"/>

  <!-- Sparkle effect (AI indicator) -->
  <path d="M48 18 L49 20 L51 21 L49 22 L48 24 L47 22 L45 21 L47 20 Z" fill="#ffffff" opacity="0.9"/>
  <path d="M52 28 L52.5 29 L53.5 29.5 L52.5 30 L52 31 L51.5 30 L50.5 29.5 L51.5 29 Z" fill="#ffffff" opacity="0.8"/>
</svg>
